<?xml version="1.0" encoding="utf-8" standalone="no"?>
<!DOCTYPE svg PUBLIC "-//W3C//DTD SVG 1.1//EN" "http://www.w3.org/Graphics/SVG/1.1/DTD/svg11.dtd">
<svg xmlns="http://www.w3.org/2000/svg" xmlns:xl="http://www.w3.org/1999/xlink" version="1.1" viewBox="66 317 735 209" width="735pt" height="209pt" xmlns:dc="http://purl.org/dc/elements/1.1/"><metadata> Produced by OmniGraffle 6.2.5 <dc:date>2015-08-03 19:43:30 +0000</dc:date></metadata><defs/><g stroke="none" stroke-opacity="1" stroke-dasharray="none" fill="none" fill-opacity="1"><title>Canvas 1</title><rect fill="white" width="845" height="818"/><g><title>Layer 1</title><rect x="75" y="363.074" width="119.902" height="114.852" id="path"/><clipPath id="clip_path"><use xl:href="#path"/></clipPath><g clip-path="url(#clip_path)"><image xl:href="image1.png" width="128" height="128" transform="matrix(.9367344 0 0 .89728125 75 363.074)"/></g><rect x="295" y="346.074" width="187" height="156" id="path_2"/><clipPath id="clip_path_2"><use xl:href="#path_2"/></clipPath><g clip-path="url(#clip_path_2)"><image xl:href="image1.png" width="128" height="128" transform="matrix(1.4609375 0 0 1.21875 295 346.074)"/></g><rect x="559" y="326" width="233" height="191" id="path_3"/><clipPath id="clip_path_3"><use xl:href="#path_3"/></clipPath><g clip-path="url(#clip_path_3)"><image xl:href="image1.png" width="128" height="128" transform="matrix(1.8203125 0 0 1.4921875 559 326)"/></g><path d="M 205.02617 423.03957 L 205.01343 418.2112 L 285.03934 417.99996 L 285.02591 412.91417 L 300.01947 420.37461 L 285.06551 427.91411 L 285.05209 422.82832 Z" fill="black" fill-opacity=".1"/><path d="M 205.02617 423.03957 L 205.01343 418.2112 L 285.03934 417.99996 L 285.02591 412.91417 L 300.01947 420.37461 L 285.06551 427.91411 L 285.05209 422.82832 Z" stroke="black" stroke-opacity=".75" stroke-linecap="round" stroke-linejoin="round" stroke-width="1"/><path d="M 482.02617 423.03957 L 482.01343 418.2112 L 562.03934 417.99996 L 562.0259 412.91417 L 577.01947 420.37461 L 562.0655 427.91411 L 562.0521 422.82832 Z" fill="black" fill-opacity=".1"/><path d="M 482.02617 423.03957 L 482.01343 418.2112 L 562.03934 417.99996 L 562.0259 412.91417 L 577.01947 420.37461 L 562.0655 427.91411 L 562.0521 422.82832 Z" stroke="black" stroke-opacity=".75" stroke-linecap="round" stroke-linejoin="round" stroke-width="1"/></g></g></svg>
